<svg width="32" height="32" viewBox="0 0 32 32" fill="none" xmlns="http://www.w3.org/2000/svg">
<path fill-rule="evenodd" clip-rule="evenodd" d="M7.19922 7.68195C7.19922 6.57738 8.09465 5.68195 9.19922 5.68195H21.1992C22.3038 5.68195 23.1992 6.57738 23.1992 7.68195V22.3019C23.1992 23.911 21.3955 24.8614 20.0683 23.9515L15.1992 20.6134L10.3301 23.9515C9.0029 24.8614 7.19922 23.9111 7.19922 22.3019V7.68195ZM21.1992 7.68195H9.19922V22.3019L14.0683 18.9638C14.7499 18.4966 15.6486 18.4966 16.3301 18.9638L21.1992 22.3019V7.68195Z" fill="#464A53"/>
<path fill-rule="evenodd" clip-rule="evenodd" d="M10.6606 11.6664C10.6606 11.1142 11.1084 10.6664 11.6606 10.6664L18.7378 10.6664C19.2901 10.6664 19.7378 11.1142 19.7378 11.6664C19.7378 12.2187 19.2901 12.6664 18.7378 12.6664L11.6606 12.6664C11.1084 12.6664 10.6606 12.2187 10.6606 11.6664Z" fill="#464A53"/>
</svg>
