<svg width="280" height="205" viewBox="0 0 280 205" fill="none" xmlns="http://www.w3.org/2000/svg">
<g clip-path="url(#clip0_2980_5966)">
<rect width="280" height="205" fill="white"/>
<circle cx="16" cy="20" r="16" fill="#F4F5F9"/>
<circle cx="16" cy="72" r="16" fill="#F4F5F9"/>
<path d="M40 16C40 7.16344 47.1634 0 56 0H224C232.837 0 240 7.16344 240 16V24C240 32.8366 232.837 40 224 40H56C47.1634 40 40 32.8366 40 24V16Z" fill="#F4F5F9"/>
<rect x="41" y="57" width="198" height="147" rx="15" stroke="url(#paint0_linear_2980_5966)" stroke-width="2"/>
<rect x="56" y="117" width="66" height="27" rx="6" fill="#E6F2FF"/>
<path d="M122 130.5H134M146 130.5H134M134 130.5V91.5C134 88.1863 136.686 85.5 140 85.5H146M134 130.5V169.5C134 172.814 136.686 175.5 140 175.5H146" stroke="#D7D8DD" stroke-width="0.75"/>
<rect x="146.375" y="117.375" width="65.25" height="26.25" rx="5.625" fill="white"/>
<rect x="146.375" y="117.375" width="65.25" height="26.25" rx="5.625" stroke="#3477EB" stroke-width="0.75"/>
<path d="M172.627 129.943H169.645V129.218H177.467C177.415 130.972 177.373 132.022 177.341 132.358C177.299 132.925 177.194 133.303 177.005 133.502C176.816 133.712 176.48 133.817 175.997 133.817C175.693 133.817 175.325 133.817 174.884 133.838L174.674 133.082C175.052 133.082 175.43 133.093 175.819 133.093C176.092 133.093 176.291 133.019 176.417 132.883C176.543 132.736 176.627 132.389 176.659 131.843C176.669 131.56 176.69 130.93 176.711 129.943H173.393V135.519H172.627V129.943ZM169.183 126.95H171.608V125.932H172.375V126.95H175.126V125.932H175.892V126.95H178.318V127.685H175.892V128.683H175.126V127.685H172.375V128.672H171.608V127.685H169.183V126.95ZM183.704 125.942H184.45V126.961H188.524V127.675H184.45V129.008H187.799V132.379H180.848V129.008H183.704V125.942ZM187.043 131.675V129.722H181.604V131.675H187.043ZM180.827 132.841L181.468 133.145C181.069 134.059 180.617 134.846 180.092 135.519L179.473 135.067C179.998 134.447 180.449 133.702 180.827 132.841ZM183.116 133.145C183.326 133.838 183.515 134.595 183.683 135.403L182.927 135.571C182.78 134.71 182.612 133.954 182.413 133.292L183.116 133.145ZM185.311 133.04C185.626 133.754 185.899 134.542 186.13 135.382L185.384 135.55C185.174 134.658 184.912 133.87 184.597 133.188L185.311 133.04ZM187.463 132.83C188.135 133.712 188.639 134.479 188.996 135.13L188.366 135.571C187.999 134.857 187.495 134.08 186.854 133.219L187.463 132.83Z" fill="#121316"/>
<rect x="146.375" y="162.375" width="65.25" height="26.25" rx="5.625" fill="white"/>
<rect x="146.375" y="162.375" width="65.25" height="26.25" rx="5.625" stroke="#3477EB" stroke-width="0.75"/>
<path d="M172.627 174.943H169.645V174.218H177.467C177.415 175.972 177.373 177.022 177.341 177.358C177.299 177.925 177.194 178.303 177.005 178.502C176.816 178.712 176.48 178.817 175.997 178.817C175.693 178.817 175.325 178.817 174.884 178.838L174.674 178.082C175.052 178.082 175.43 178.093 175.819 178.093C176.092 178.093 176.291 178.019 176.417 177.883C176.543 177.736 176.627 177.389 176.659 176.843C176.669 176.56 176.69 175.93 176.711 174.943H173.393V180.519H172.627V174.943ZM169.183 171.95H171.608V170.932H172.375V171.95H175.126V170.932H175.892V171.95H178.318V172.685H175.892V173.683H175.126V172.685H172.375V173.672H171.608V172.685H169.183V171.95ZM183.704 170.942H184.45V171.961H188.524V172.675H184.45V174.008H187.799V177.379H180.848V174.008H183.704V170.942ZM187.043 176.675V174.722H181.604V176.675H187.043ZM180.827 177.841L181.468 178.145C181.069 179.059 180.617 179.846 180.092 180.519L179.473 180.067C179.998 179.447 180.449 178.702 180.827 177.841ZM183.116 178.145C183.326 178.838 183.515 179.595 183.683 180.403L182.927 180.571C182.78 179.71 182.612 178.954 182.413 178.292L183.116 178.145ZM185.311 178.04C185.626 178.754 185.899 179.542 186.13 180.382L185.384 180.55C185.174 179.658 184.912 178.87 184.597 178.188L185.311 178.04ZM187.463 177.83C188.135 178.712 188.639 179.479 188.996 180.13L188.366 180.571C187.999 179.857 187.495 179.08 186.854 178.219L187.463 177.83Z" fill="#121316"/>
<path d="M146.375 78C146.375 74.8934 148.893 72.375 152 72.375H206C209.107 72.375 211.625 74.8934 211.625 78V93C211.625 96.1066 209.107 98.625 206 98.625H152C148.893 98.625 146.375 96.1066 146.375 93V78Z" fill="white"/>
<path d="M146.375 78C146.375 74.8934 148.893 72.375 152 72.375H206C209.107 72.375 211.625 74.8934 211.625 78V93C211.625 96.1066 209.107 98.625 206 98.625H152C148.893 98.625 146.375 96.1066 146.375 93V78Z" stroke="#3477EB" stroke-width="0.75"/>
<path d="M172.627 84.943H169.645V84.2185H177.467C177.415 85.972 177.373 87.022 177.341 87.358C177.299 87.925 177.194 88.303 177.005 88.5025C176.816 88.7125 176.48 88.8175 175.997 88.8175C175.693 88.8175 175.325 88.8175 174.884 88.8385L174.674 88.0825C175.052 88.0825 175.43 88.093 175.819 88.093C176.092 88.093 176.291 88.0195 176.417 87.883C176.543 87.736 176.627 87.3895 176.659 86.8435C176.669 86.56 176.69 85.93 176.711 84.943H173.393V90.5185H172.627V84.943ZM169.183 81.9505H171.608V80.932H172.375V81.9505H175.126V80.932H175.892V81.9505H178.318V82.6855H175.892V83.683H175.126V82.6855H172.375V83.6725H171.608V82.6855H169.183V81.9505ZM183.704 80.9425H184.45V81.961H188.524V82.675H184.45V84.0085H187.799V87.379H180.848V84.0085H183.704V80.9425ZM187.043 86.6755V84.7225H181.604V86.6755H187.043ZM180.827 87.841L181.468 88.1455C181.069 89.059 180.617 89.8465 180.092 90.5185L179.473 90.067C179.998 89.4475 180.449 88.702 180.827 87.841ZM183.116 88.1455C183.326 88.8385 183.515 89.5945 183.683 90.403L182.927 90.571C182.78 89.71 182.612 88.954 182.413 88.2925L183.116 88.1455ZM185.311 88.0405C185.626 88.7545 185.899 89.542 186.13 90.382L185.384 90.55C185.174 89.6575 184.912 88.87 184.597 88.1875L185.311 88.0405ZM187.463 87.8305C188.135 88.7125 188.639 89.479 188.996 90.13L188.366 90.571C187.999 89.857 187.495 89.08 186.854 88.219L187.463 87.8305Z" fill="#121316"/>
<circle opacity="0.2" cx="179" cy="91" r="16" fill="#B3D6FF"/>
<circle opacity="0.5" cx="179" cy="91" r="4" fill="#5E9BF7"/>
<g filter="url(#filter0_d_2980_5966)">
<path d="M177.904 102.893C177.624 102.533 177.274 101.803 176.664 100.893C176.314 100.393 175.454 99.4432 175.194 98.9532C175.006 98.6554 174.952 98.2929 175.044 97.9532C175.201 97.3074 175.813 96.879 176.474 96.9532C176.984 97.0558 177.454 97.3062 177.824 97.6732C178.082 97.9164 178.319 98.1806 178.534 98.4632C178.694 98.6632 178.734 98.7432 178.914 98.9732C179.094 99.2032 179.214 99.4332 179.124 99.0932C179.054 98.5932 178.934 97.7532 178.764 97.0032C178.634 96.4332 178.604 96.3432 178.484 95.9132C178.364 95.4832 178.294 95.1232 178.164 94.6332C178.045 94.1518 177.951 93.6644 177.884 93.1732C177.758 92.5449 177.849 91.8924 178.144 91.3232C178.493 90.9946 179.006 90.9078 179.444 91.1032C179.884 91.4285 180.213 91.8829 180.384 92.4032C180.646 93.0436 180.821 93.7163 180.904 94.4032C181.064 95.4032 181.374 96.8632 181.384 97.1632C181.384 96.7932 181.314 96.0132 181.384 95.6632C181.453 95.2983 181.707 94.9955 182.054 94.8632C182.351 94.7718 182.667 94.7513 182.974 94.8032C183.284 94.868 183.558 95.0464 183.744 95.3032C183.975 95.8866 184.104 96.5058 184.124 97.1332C184.15 96.5838 184.244 96.0397 184.404 95.5132C184.571 95.2778 184.815 95.108 185.094 95.0332C185.424 94.9728 185.763 94.9728 186.094 95.0332C186.365 95.1238 186.602 95.2947 186.774 95.5232C186.985 96.0536 187.114 96.6136 187.154 97.1832C187.154 97.3232 187.224 96.7932 187.444 96.4432C187.558 96.1038 187.845 95.8512 188.196 95.7805C188.547 95.7098 188.909 95.8318 189.146 96.1005C189.383 96.3692 189.458 96.7438 189.344 97.0832C189.344 97.7332 189.344 97.7032 189.344 98.1432C189.344 98.5832 189.344 98.9732 189.344 99.3432C189.307 99.9284 189.227 100.51 189.104 101.083C188.93 101.59 188.687 102.071 188.384 102.513C187.898 103.053 187.497 103.663 187.194 104.323C187.118 104.651 187.085 104.987 187.094 105.323C187.093 105.634 187.133 105.943 187.214 106.243C186.805 106.286 186.393 106.286 185.984 106.243C185.594 106.183 185.114 105.403 184.984 105.163C184.919 105.034 184.788 104.953 184.644 104.953C184.5 104.953 184.368 105.034 184.304 105.163C184.084 105.543 183.594 106.233 183.254 106.273C182.584 106.353 181.204 106.273 180.114 106.273C180.114 106.273 180.294 105.273 179.884 104.913C179.474 104.553 179.054 104.133 178.744 103.853L177.904 102.893Z" fill="white"/>
<path fill-rule="evenodd" clip-rule="evenodd" d="M177.904 102.893C177.624 102.533 177.274 101.803 176.664 100.893C176.314 100.393 175.454 99.4432 175.194 98.9532C175.006 98.6554 174.952 98.2929 175.044 97.9532C175.201 97.3074 175.813 96.879 176.474 96.9532C176.984 97.0558 177.454 97.3062 177.824 97.6732C178.082 97.9164 178.319 98.1806 178.534 98.4632C178.694 98.6632 178.734 98.7432 178.914 98.9732C179.094 99.2032 179.214 99.4332 179.124 99.0932C179.054 98.5932 178.934 97.7532 178.764 97.0032C178.634 96.4332 178.604 96.3432 178.484 95.9132C178.364 95.4832 178.294 95.1232 178.164 94.6332C178.045 94.1518 177.951 93.6644 177.884 93.1732C177.758 92.5449 177.849 91.8924 178.144 91.3232C178.493 90.9946 179.006 90.9078 179.444 91.1032C179.884 91.4285 180.213 91.8829 180.384 92.4032C180.646 93.0436 180.821 93.7163 180.904 94.4032C181.064 95.4032 181.374 96.8632 181.384 97.1632C181.384 96.7932 181.314 96.0132 181.384 95.6632C181.453 95.2983 181.707 94.9955 182.054 94.8632C182.351 94.7718 182.667 94.7513 182.974 94.8032C183.284 94.868 183.558 95.0464 183.744 95.3032C183.975 95.8866 184.104 96.5058 184.124 97.1332C184.15 96.5838 184.244 96.0397 184.404 95.5132C184.571 95.2778 184.815 95.108 185.094 95.0332C185.424 94.9728 185.763 94.9728 186.094 95.0332C186.365 95.1238 186.602 95.2947 186.774 95.5232C186.985 96.0536 187.114 96.6136 187.154 97.1832C187.154 97.3232 187.224 96.7932 187.444 96.4432C187.558 96.1038 187.845 95.8512 188.196 95.7805C188.547 95.7098 188.909 95.8318 189.146 96.1005C189.383 96.3692 189.458 96.7438 189.344 97.0832C189.344 97.7332 189.344 97.7032 189.344 98.1432C189.344 98.5832 189.344 98.9732 189.344 99.3432C189.307 99.9284 189.227 100.51 189.104 101.083C188.93 101.59 188.687 102.071 188.384 102.513C187.898 103.053 187.497 103.663 187.194 104.323C187.118 104.651 187.085 104.987 187.094 105.323C187.093 105.634 187.133 105.943 187.214 106.243C186.805 106.286 186.393 106.286 185.984 106.243C185.594 106.183 185.114 105.403 184.984 105.163C184.919 105.034 184.788 104.953 184.644 104.953C184.5 104.953 184.368 105.034 184.304 105.163C184.084 105.543 183.594 106.233 183.254 106.273C182.584 106.353 181.204 106.273 180.114 106.273C180.114 106.273 180.294 105.273 179.884 104.913C179.474 104.553 179.054 104.133 178.744 103.853L177.904 102.893Z" stroke="black" stroke-width="0.75" stroke-linecap="round" stroke-linejoin="round"/>
<path d="M186.383 103.439V99.9874C186.383 99.7808 186.215 99.6133 186.008 99.6133C185.801 99.6133 185.633 99.7808 185.633 99.9874V103.439C185.633 103.646 185.801 103.813 186.008 103.813C186.215 103.813 186.383 103.646 186.383 103.439Z" fill="black"/>
<path d="M184.403 103.438L184.383 99.9844C184.382 99.7782 184.213 99.6121 184.006 99.6133C183.799 99.6145 183.632 99.7825 183.633 99.9887L183.653 103.442C183.654 103.648 183.823 103.814 184.03 103.813C184.237 103.812 184.404 103.644 184.403 103.438Z" fill="black"/>
<path d="M181.633 99.9923L181.653 103.439C181.654 103.647 181.823 103.814 182.03 103.813C182.237 103.812 182.404 103.642 182.403 103.434L182.383 99.9879C182.382 99.7798 182.213 99.6121 182.006 99.6133C181.799 99.6145 181.632 99.7842 181.633 99.9923Z" fill="black"/>
</g>
<rect y="125" width="280" height="80" fill="url(#paint1_linear_2980_5966)"/>
</g>
<defs>
<filter id="filter0_d_2980_5966" x="173.825" y="90.625" width="16.7484" height="17.8588" filterUnits="userSpaceOnUse" color-interpolation-filters="sRGB">
<feFlood flood-opacity="0" result="BackgroundImageFix"/>
<feColorMatrix in="SourceAlpha" type="matrix" values="0 0 0 0 0 0 0 0 0 0 0 0 0 0 0 0 0 0 127 0" result="hardAlpha"/>
<feOffset dy="1"/>
<feGaussianBlur stdDeviation="0.4"/>
<feColorMatrix type="matrix" values="0 0 0 0 0 0 0 0 0 0 0 0 0 0 0 0 0 0 0.5 0"/>
<feBlend mode="normal" in2="BackgroundImageFix" result="effect1_dropShadow_2980_5966"/>
<feBlend mode="normal" in="SourceGraphic" in2="effect1_dropShadow_2980_5966" result="shape"/>
</filter>
<linearGradient id="paint0_linear_2980_5966" x1="140" y1="56" x2="140" y2="205" gradientUnits="userSpaceOnUse">
<stop stop-color="#B3D6FF"/>
<stop offset="1" stop-color="#B3D6FF" stop-opacity="0"/>
</linearGradient>
<linearGradient id="paint1_linear_2980_5966" x1="140" y1="125" x2="140" y2="205" gradientUnits="userSpaceOnUse">
<stop stop-color="white" stop-opacity="0"/>
<stop offset="1" stop-color="white"/>
</linearGradient>
<clipPath id="clip0_2980_5966">
<rect width="280" height="205" fill="white"/>
</clipPath>
</defs>
</svg>
