<svg width="174" height="40" viewBox="0 0 174 40" fill="none" xmlns="http://www.w3.org/2000/svg">
<path d="M69.1712 22.2124H65.0072C64.6582 22.2124 64.3768 21.931 64.3768 21.582V14.0092C64.3768 13.2327 63.8982 12.8431 62.9428 12.8431L56.8771 12.8215C56.5308 12.8215 56.2494 12.5374 56.2494 12.1911V12.1397C56.2494 11.6878 55.9381 11.4606 55.3131 11.4606H52.5047C52.2504 11.4606 52.0557 11.4849 51.9204 11.5336C51.6094 11.631 51.463 11.861 51.463 12.1992C51.463 12.5482 51.1817 12.8296 50.8327 12.8296L45.768 12.8323C44.9753 12.8323 44.334 13.4735 44.334 14.2662C44.334 15.0589 44.9753 15.7002 45.768 15.7002L50.822 15.7029C51.1711 15.7029 51.4524 15.9842 51.4524 16.3333V21.5766C51.4524 21.9256 51.1711 22.207 50.822 22.207L45.7733 22.2043C44.9807 22.2043 44.334 22.8536 44.334 23.6464C44.334 24.4391 44.9753 25.0884 45.768 25.0884H50.8247C51.1737 25.0884 51.4551 25.3698 51.4551 25.7188V32.8723C51.4551 33.6649 51.9314 34.0629 52.8891 34.0629L54.8451 34.0599C55.2728 34.0599 55.6108 33.9652 55.8598 33.7732C55.8841 33.7542 55.9084 33.7325 55.9301 33.7109C56.1411 33.4892 56.2468 33.1997 56.2468 32.8479L56.2521 25.7323C56.2521 25.3833 56.5334 25.0992 56.8824 25.0992H65.1805C65.5295 25.0992 65.8109 25.3806 65.8109 25.7296V29.3659C65.8109 29.7149 65.5269 29.9882 65.1778 29.9855L61.4468 29.9882C60.6595 29.9882 60.0208 30.6267 60.0208 31.414C60.0208 32.2013 60.6595 32.8398 61.4468 32.8398L69.1442 32.8371C69.5932 32.8371 69.9422 32.7316 70.1966 32.5206C70.4509 32.3095 70.5782 32.02 70.5782 31.6467L70.6079 23.3974C70.6052 22.6101 70.1262 22.2124 69.1712 22.2124ZM59.6098 20.5323C59.6098 21.4603 58.8575 22.2124 57.9294 22.2124C57.0014 22.2124 56.2494 21.4603 56.2494 20.5323V17.3911C56.2494 16.4631 57.0014 15.711 57.9294 15.711C58.8575 15.711 59.6098 16.4631 59.6098 17.3911V20.5323Z" fill="#1B3882"/>
<path d="M66.039 17.4159C66.2743 18.6009 67.427 19.3747 68.612 19.1393C69.797 18.9039 70.571 17.7513 70.3353 16.5663L69.532 12.4999C69.2967 11.3148 68.144 10.541 66.959 10.7764C65.774 11.0118 65 12.1644 65.2356 13.3494L66.039 17.4159Z" fill="#1B3882"/>
<path d="M99.0251 30.446L89.672 30.4406V24.7616L98.1674 24.7562C98.9574 24.7562 99.5987 24.115 99.5987 23.325C99.5987 22.535 98.9574 21.8937 98.1674 21.8937L89.672 21.8964V16.3636L98.1674 16.3365C98.9574 16.3365 99.5987 15.6953 99.5987 14.9053C99.5987 14.1153 98.9574 13.4741 98.1674 13.4741H89.672V12.5271C89.672 11.8967 89.204 11.5802 88.2676 11.5802H86.0736C85.1186 11.5802 84.6396 11.9779 84.6396 12.7679V13.4714H79.9482C80.0779 12.519 79.5665 11.5612 78.6412 11.1635C77.5292 10.6873 76.2415 11.2041 75.7678 12.3161L74.1365 16.1255C73.6605 17.2375 74.1772 18.5253 75.2892 18.9988C76.4012 19.475 77.6889 18.9582 78.1625 17.8462L78.8009 16.3555H84.6396V21.8883C84.6396 21.8883 79.0525 21.8856 79.0419 21.8856H75.4378C74.6478 21.8856 74.0068 22.5268 74.0068 23.3169C74.0068 24.1069 74.6478 24.7481 75.4378 24.7481L84.6396 24.7535V30.4325L75.1888 30.4379C74.3988 30.4379 73.7578 31.0791 73.7578 31.8691C73.7578 32.6591 74.3988 33.3003 75.1888 33.3003H99.0224C99.8124 33.3003 100.454 32.6591 100.454 31.8691C100.454 31.0872 99.8151 30.446 99.0251 30.446Z" fill="#1B3882"/>
<path d="M107.596 25.1616C108.755 25.1616 109.695 24.2216 109.695 23.0621C109.695 21.9025 108.755 20.9625 107.596 20.9625C106.436 20.9625 105.496 21.9025 105.496 23.0621C105.496 24.2216 106.436 25.1616 107.596 25.1616Z" fill="#1B3882"/>
<path d="M168.013 26.1139H155.329C154.258 26.1139 153.725 26.5252 153.725 27.3449V32.5964C153.725 33.3999 154.258 33.8032 155.329 33.8032H168.042C169.111 33.8032 169.636 33.3999 169.617 32.5964V27.3449C169.617 26.5252 169.084 26.1139 168.013 26.1139ZM163.638 31.0651H159.588C158.944 31.0651 158.419 30.5429 158.419 29.8963C158.419 29.2523 158.941 28.7275 159.588 28.7275H163.638C164.284 28.7275 164.807 29.2496 164.807 29.8963C164.804 30.5402 164.282 31.0651 163.638 31.0651Z" fill="#1B3882"/>
<path d="M150.073 31.022H149.908V19.0282C149.908 18.2085 149.413 17.7972 148.425 17.7972L144.145 17.7999C143.328 17.7999 142.665 18.4628 142.665 19.2826C142.665 20.1024 143.328 20.7625 144.145 20.7625H145.216V32.7454C145.216 33.4598 145.592 33.8628 146.345 33.9548C146.355 33.9628 150.076 33.9574 150.076 33.9574C150.887 33.9574 151.545 33.3 151.545 32.4884C151.542 31.6794 150.885 31.022 150.073 31.022Z" fill="#1B3882"/>
<path d="M169.052 22.0396H168.443V17.9624C168.443 17.1426 167.907 16.7313 166.838 16.7313H160.718L161.14 14.0799H168.681C169.406 14.0799 169.993 13.5009 169.993 12.7758C169.993 12.0507 169.406 11.4636 168.681 11.4636H154.019C153.294 11.4636 152.707 12.0507 152.707 12.7758C152.707 13.5009 153.297 14.0799 154.022 14.0799H156.544L156.122 16.7313H154.501C153.784 16.7313 153.202 17.313 153.202 18.03C153.202 18.747 153.784 19.3287 154.501 19.3287H155.721L155.213 22.0504H153.749C153.032 22.0504 152.45 22.624 152.45 23.341C152.45 24.058 153.032 24.6397 153.749 24.6397H169.054C169.771 24.6397 170.353 24.058 170.353 23.341C170.35 22.6213 169.769 22.0396 169.052 22.0396ZM162.647 22.045H161.441C160.589 22.045 159.945 21.2767 160.093 20.4379C160.21 19.7832 160.778 19.307 161.441 19.307H162.647C163.405 19.307 164.016 19.9212 164.016 20.676C164.016 21.4309 163.405 22.045 162.647 22.045Z" fill="#1B3882"/>
<path d="M149.482 14.4815C149.689 13.1982 148.817 11.9894 147.534 11.7817C146.251 11.574 145.042 12.4459 144.834 13.7293C144.626 15.0126 145.498 16.2214 146.782 16.4291C148.065 16.6368 149.274 15.7649 149.482 14.4815Z" fill="#1B3882"/>
<path d="M115.565 16.3166C116.193 17.2446 117.454 17.4854 118.382 16.8577C119.31 16.23 119.551 14.9692 118.923 14.0412L118.138 12.8832C117.511 11.9552 116.25 11.7144 115.322 12.3421C114.394 12.9698 114.153 14.2306 114.781 15.1586L115.565 16.3166Z" fill="#1B3882"/>
<path d="M118.466 19.3475C117.838 18.4195 116.577 18.1787 115.649 18.8064C114.721 19.4341 114.48 20.6948 115.108 21.6228L115.893 22.7808C116.52 23.7088 117.781 23.9496 118.709 23.3219C119.637 22.6942 119.878 21.4335 119.251 20.5055L118.466 19.3475Z" fill="#1B3882"/>
<path d="M118.211 25.586C117.015 25.3209 115.83 26.073 115.563 27.2689L114.651 31.3651C114.386 32.5609 115.138 33.7459 116.334 34.0139C117.529 34.2789 118.715 33.5269 118.982 32.331L119.894 28.2348C120.162 27.0389 119.407 25.8539 118.211 25.586Z" fill="#1B3882"/>
<path d="M139.482 13.0223H139.103C139.019 12.0104 138.172 11.2177 137.141 11.2177C136.105 11.2177 135.255 12.005 135.177 13.0196H133.502V12.6976C133.502 12.3026 133.291 11.9887 133.075 11.7967C132.853 11.6019 132.306 11.4936 131.757 11.4936H130.523C129.977 11.4936 129.571 11.5937 129.309 11.7967C129.046 11.9996 128.914 12.3026 128.914 12.7057V13.0196L123.562 13.0223C122.834 13.0223 122.244 13.6121 122.244 14.3399C122.244 15.0677 122.834 15.6575 123.562 15.6575H128.914V17.1212H124.233C123.665 17.1212 123.259 17.2321 123.018 17.4486C122.734 17.6515 122.593 17.9545 122.593 18.3576V32.7403C122.593 33.1434 122.734 33.4465 123.018 33.6495C123.28 33.8524 123.686 33.9525 124.233 33.9525H125.48C126.008 33.9525 126.411 33.8524 126.695 33.6495C126.979 33.4301 127.12 33.1272 127.12 32.7403V30.1538C127.12 29.6587 127.52 29.2583 128.015 29.2583C128.511 29.2583 128.911 29.6587 128.911 30.1538V32.7647C128.911 33.5548 129.447 33.9498 130.523 33.9498H131.86C132.388 33.9498 132.793 33.8495 133.075 33.6468C133.359 33.4275 133.5 33.1245 133.5 32.7376V30.2133C133.5 29.6858 133.927 29.2556 134.457 29.2556C134.988 29.2556 135.415 29.6831 135.415 30.2133V31.3632C134.758 31.4281 134.241 31.9774 134.241 32.6537C134.241 33.3735 134.825 33.9578 135.545 33.9578L138.334 33.9525C138.862 33.9525 139.268 33.8441 139.549 33.6251C139.812 33.4221 139.944 33.1299 139.944 32.743V18.3603C139.944 17.9572 139.812 17.6542 139.549 17.4513C139.265 17.2321 138.859 17.1239 138.334 17.1239H133.497V15.6602H139.482C140.209 15.6602 140.799 15.0704 140.799 14.3426C140.799 13.6121 140.209 13.0223 139.482 13.0223ZM128.911 25.8168C128.911 26.3119 128.511 26.7124 128.015 26.7124C127.52 26.7124 127.12 26.3119 127.12 25.8168V25.3893C127.12 24.8942 127.52 24.4938 128.015 24.4938C128.511 24.4938 128.911 24.8942 128.911 25.3893V25.8168ZM128.911 21.0713C128.911 21.5664 128.511 21.9668 128.015 21.9668C127.52 21.9668 127.12 21.5664 127.12 21.0713V20.5437C127.12 20.0486 127.52 19.6482 128.015 19.6482C128.511 19.6482 128.911 20.0486 128.911 20.5437V21.0713ZM134.46 26.7124C133.93 26.7124 133.502 26.2849 133.502 25.7546V25.4489C133.502 24.9213 133.93 24.4911 134.46 24.4911C134.99 24.4911 135.418 24.9186 135.418 25.4489V25.7546C135.418 26.2822 134.988 26.7124 134.46 26.7124ZM134.46 19.6482C134.99 19.6482 135.418 20.0756 135.418 20.6059V21.0118C135.418 21.5393 134.99 21.9695 134.46 21.9695C133.93 21.9695 133.502 21.542 133.502 21.0118V20.6059C133.502 20.0756 133.93 19.6482 134.46 19.6482Z" fill="#1B3882"/>
<path d="M11.3936 31.6093C11.3936 31.6093 14.7893 31.2318 14.978 31.1689C15.1668 31.106 18.6883 31.2947 18.6883 31.2947L20.9516 31.861L23.0261 32.616L23.5923 32.8047L26.6734 31.6722L30.3837 31.106L32.8986 31.1689L34.8472 31.4206L35.6653 31.6722L35.6022 35.0678L33.9036 34.6274L30.6336 34.3758L28.3704 34.5644L26.4218 35.0051L24.6619 35.5711L23.4035 36.0744L20.7628 35.0678L17.5558 34.4388H13.8455L11.3936 34.8791V31.6093Z" fill="#1B3882" fill-opacity="0.5"/>
<path d="M23.3907 36.6666C17.6741 33.5189 11.6027 35.4066 11.5416 35.4259L10.8564 35.6443V31.31L11.2199 31.1929C11.4839 31.1073 17.772 29.1412 23.8958 32.5124L23.3907 33.4316C18.4763 30.7263 13.3014 31.7417 11.9051 32.0912V34.2409C13.7296 33.8076 18.8678 32.9773 23.8958 35.7456L23.3907 36.6649V36.6666Z" fill="#1B3882"/>
<path d="M23.3244 36.6666L22.8193 35.7476C27.8474 32.9791 32.9855 33.8092 34.81 34.2426V32.0931C33.4154 31.7418 28.2389 30.7282 23.3244 33.4336L22.8193 32.5143C28.9432 29.143 35.2314 31.1091 35.4951 31.1948L35.8587 31.3119V35.6479L35.1737 35.4259C35.114 35.4066 29.0428 33.5192 23.3244 36.6666Z" fill="#1B3882"/>
<path d="M29.9012 26.782C29.9029 26.4027 29.7701 26.0777 29.501 25.7945C29.2353 25.5254 28.9137 25.3978 28.5432 25.4083C28.164 25.4345 27.8407 25.5866 27.5681 25.8522C27.3024 26.1738 27.1731 26.5093 27.1748 26.8903C27.1731 27.2556 27.3024 27.5806 27.5628 27.848C27.8285 28.1311 28.1535 28.2605 28.538 28.2343C28.912 28.236 29.2336 28.084 29.4975 27.7904C29.7666 27.4968 29.8994 27.1595 29.9029 26.7802L29.9012 26.782Z" fill="#1B3882" fill-opacity="0.5"/>
<path d="M19.3175 27.7922C19.5867 27.4986 19.7195 27.1771 19.7177 26.7961C19.7195 26.4168 19.5867 26.0638 19.321 25.7667C19.0361 25.5255 18.7181 25.4119 18.3616 25.4224C17.9701 25.4626 17.6467 25.6007 17.3863 25.8384C17.1207 26.132 16.9879 26.4815 16.9844 26.8765C16.9844 27.2557 17.1189 27.5808 17.3846 27.8499C17.6415 28.133 17.9648 28.2606 18.3476 28.2361C18.7425 28.2239 19.0624 28.0859 19.3158 27.7922H19.3175Z" fill="#1B3882" fill-opacity="0.5"/>
<path d="M23.3033 31.5894C22.253 31.5894 21.2219 31.502 20.4319 31.2993C18.3068 30.754 16.615 29.7701 15.2606 28.2898C13.8537 26.7502 13.7646 25.2664 13.6702 23.6953C13.658 23.4943 13.6458 23.2898 13.63 23.0818C13.5042 21.3429 12.6828 18.6253 12.674 18.5991L12.6094 18.3859L12.7404 18.2059C13.9498 16.5596 15.4406 15.3834 17.3019 14.6075C19.0111 13.8944 21.0454 13.5222 23.5218 13.468C27.6446 13.2268 32.1396 14.9413 34.2122 17.547L34.3435 17.7113L33.4048 22.0892C33.3945 22.3251 33.3245 23.5572 32.9854 26.0756C32.587 29.0256 28.9431 30.7138 27.0713 31.1927C26.1206 31.4374 24.6928 31.5894 23.3016 31.5894H23.3033ZM13.5916 18.5554C13.7943 19.2527 14.406 21.453 14.5196 23.0154C14.5353 23.2269 14.5475 23.4366 14.5598 23.6411C14.6507 25.172 14.724 26.3814 15.9177 27.6887C17.1516 29.0378 18.7 29.9379 20.6522 30.4377C22.3072 30.8624 25.2905 30.7313 26.8511 30.3294C28.1951 29.9851 31.7586 28.5258 32.1046 25.9532C32.4699 23.2461 32.5171 22.0245 32.5188 22.0123V21.9738L33.3855 17.9367C32.0225 15.3188 31.2133 14.7822 29.4796 14.1286C27.6516 13.4383 25.4233 14.2422 23.5655 14.3523H23.5498C18.8136 14.4554 15.341 12.9367 13.5898 18.5537L13.5916 18.5554Z" fill="#1B3882"/>
<path d="M32.6129 18.2759C32.9502 19.1445 33.0935 19.5797 33.4099 20.3749C33.4099 20.3749 34.2469 19.0309 34.5109 18.0697C34.7766 17.098 34.6139 15.8607 34.4059 14.7037C33.8836 12.7621 33.4779 12.6118 31.9103 11.4618C31.2148 10.9847 30.4283 10.5618 29.5388 10.1895C27.6146 9.46427 25.6817 9.0623 23.7365 8.9784C21.8088 8.9452 19.8637 9.23357 17.915 9.84C17.0097 10.1546 16.2023 10.5321 15.4875 10.969C13.8587 12.0228 12.7244 13.5066 12.0935 15.4115C11.924 16.1281 11.6549 16.8166 11.7213 17.4808C12.0254 20.5269 14.0125 21.8639 13.8761 21.1298C13.6996 20.1826 13.8132 19.6234 14.0561 18.7181C14.5176 17.0054 15.6098 15.7401 17.3348 14.9344H17.34C17.6756 14.84 19.3761 13.8736 21.6341 15.0288C22.2335 15.2857 23.2821 15.9813 23.8064 15.9655C24.3324 15.9498 25.0892 15.443 25.6397 15.0987C26.6743 14.4503 27.6548 14.2284 28.9498 14.6391C30.832 15.2315 31.9873 16.5702 32.6129 18.2777V18.2759Z" fill="#1B3882"/>
<path d="M4.83889 16.757L6.25447 17.1729L7.87808 17.089L9.04376 16.2973L10.2933 15.1736L11.2091 13.924L12.3748 12.7164L13.4986 12.0086L15.0382 11.6748L13.9967 13.5063L13.1228 14.3802L11.2913 16.9195L10.4594 18.1691L9.50166 18.8349L8.12798 19.7507C8.12798 19.7507 6.92034 20.0006 6.79627 20.0426C6.67217 20.0845 5.67253 20.2505 5.67253 20.2505L4.79869 20.2086L4.13281 20.0006L4.75672 18.7511L4.84062 17.8353V16.7535L4.83889 16.757Z" fill="#1B3882" fill-opacity="0.5"/>
<path d="M8.46526 9.55688L8.33939 10.5129L8.00735 11.1805L7.59141 11.8044L6.5498 12.4283L7.79938 13.0522L9.17303 13.594L10.5886 13.8858L11.2126 13.9278L12.7121 12.8862L14.2937 11.4706L13.7519 11.3046L11.7963 11.0966L10.3387 10.5548L9.29713 10.0148L8.46526 9.55688Z" fill="#1B3882" fill-opacity="0.5"/>
<path d="M5.30519 20.6036C4.86475 20.6036 4.40161 20.5774 3.91578 20.5267L3 20.4219L3.4509 20.1318L3.69207 19.8714C3.72527 19.8207 3.82141 19.6529 3.98044 19.2999V19.2964C4.23734 18.7441 4.32648 17.8196 4.24784 16.5491L4.19364 15.6945L4.85252 16.2397C5.54112 16.8095 6.40447 16.9458 7.48978 16.6522C8.45972 16.3761 9.51529 15.4708 10.6233 13.9643C11.6422 12.498 13.1085 11.5036 14.9855 11.0073L15.162 10.9601L16.3487 11.8846L15.2826 11.8077C15.183 11.9038 15.0834 12.0069 14.9925 12.1205L14.9715 12.1467L14.9436 12.1712C14.3319 13.2582 13.4563 14.3313 12.5807 15.5057L12.5685 15.5267C12.4339 15.7626 12.2959 16.0073 12.1456 16.2502V16.2625L12.0966 16.3411C11.2 17.7987 10.2144 18.8909 9.16579 19.59C8.20282 20.2646 6.9078 20.6054 5.30519 20.6054V20.6036ZM4.54668 19.8382C6.35553 19.9553 7.76588 19.6686 8.74459 18.9801L8.75159 18.9748C9.70056 18.3439 10.6041 17.3425 11.4377 16.0003C11.4535 15.9549 11.4762 15.9164 11.5006 15.8867C11.6492 15.6473 11.789 15.4009 11.9253 15.1614V15.1579C12.5178 14.022 13.1994 13.0118 13.9596 12.1467C12.8254 12.6466 11.9271 13.3893 11.2315 14.3907L11.2263 14.3995C10.0012 16.0685 8.84422 17.0384 7.69074 17.367C6.67187 17.6414 5.77706 17.5924 5.01855 17.2219C5.03429 18.267 4.91545 19.0517 4.65855 19.6057C4.62008 19.6931 4.58338 19.77 4.55018 19.8382H4.54668Z" fill="#1B3882"/>
<path d="M5.38551 20.6039C4.9451 20.6039 4.48196 20.5777 3.99609 20.527L4.07299 19.7912C6.14921 20.0097 7.7466 19.7371 8.82317 18.9803L8.83191 18.9751C9.78088 18.3442 10.6844 17.3428 11.5181 16.0006C11.5478 15.9184 11.595 15.8625 11.6369 15.8258L12.121 16.3851C12.1944 16.3204 12.2259 16.233 12.2311 16.1719L12.2241 16.261L12.1769 16.3396C11.2804 17.7972 10.2947 18.8895 9.24611 19.5885C8.28313 20.2631 6.98812 20.6039 5.38551 20.6039Z" fill="#1B3882"/>
<path d="M11.7131 13.5105C11.5558 13.521 11.3985 13.5298 11.2412 13.535C9.99513 13.5787 8.66515 13.2309 7.27927 12.5022C8.47991 11.7262 8.81372 10.8419 8.76652 10.045C9.05315 10.2721 9.35199 10.4714 9.66309 10.6409C11.7009 11.7891 13.854 11.9709 17.5346 10.9415L17.2847 10.2442C13.7876 11.2089 11.8931 11.0499 10.0214 9.99428C9.49006 9.70592 8.99722 9.31795 8.55681 8.84432L8.50611 8.79015L7.74764 7.96875L7.89094 9.02435C7.91191 9.11172 8.34708 11.1722 6.35999 12.1771L5.75879 12.4812L6.33903 12.8255C7.96434 13.7919 9.54072 14.2813 11.0263 14.2813L11.7131 13.5123V13.5105Z" fill="#1B3882"/>
<path d="M21.0721 24.865C20.8414 24.865 20.6247 24.7217 20.5181 24.4805C20.0235 23.3515 19.6355 22.8814 19.0501 22.1701C18.4576 21.4518 17.1958 20.2355 16.9878 20.0589C16.7099 19.823 16.6313 19.5014 16.7973 19.2795C16.8812 19.1694 17.1294 18.9474 17.6397 19.2865C18.6743 19.9716 20.9707 22.032 21.5911 23.6871C21.8183 24.2883 21.5911 24.6972 21.287 24.8213C21.2154 24.851 21.1437 24.8632 21.0703 24.8632L21.0721 24.865Z" fill="#1B3882"/>
<path d="M25.5389 24.8928C25.4655 24.8928 25.3904 24.8788 25.317 24.8473C25.0129 24.7197 24.7927 24.3073 25.0269 23.7096C25.6683 22.0633 27.9909 20.0325 29.0343 19.3597C29.5498 19.0276 29.7945 19.2513 29.8766 19.3632C30.0409 19.5869 29.9588 19.9067 29.6774 20.1391C29.4677 20.3139 28.1902 21.511 27.5889 22.2241C26.9947 22.9284 26.6015 23.3933 26.0912 24.517C25.9828 24.7547 25.7679 24.8945 25.5407 24.8945L25.5389 24.8928Z" fill="#1B3882"/>
<path d="M27.8216 6.84328C27.8373 5.98518 27.4197 5.24591 26.5685 4.62724C25.7034 4.02081 24.6706 3.71498 23.4699 3.70624C22.2693 3.69748 21.2399 3.99284 20.3923 4.59578C19.5394 5.20398 19.1043 5.93448 19.0938 6.78561C19.0973 7.05124 19.12 7.29418 19.1532 7.52134C22.3357 6.49724 25.1861 6.58111 27.6993 7.77478C27.7674 7.45668 27.8094 7.14734 27.8216 6.84151V6.84328Z" fill="#1B3882" fill-opacity="0.5"/>
<path d="M14.5127 24.1151L14.497 24.0784C14.455 23.9823 14.4183 23.8844 14.3886 23.7883L14.2995 23.5017L13.7105 23.5209L13.6651 24.0155C13.6686 24.0347 13.6791 24.0819 13.6896 24.1658V24.1833C13.6948 24.213 13.6966 24.2375 13.7018 24.2619C13.7105 24.5241 13.6319 24.7321 13.4536 24.9156C13.2841 25.0956 13.0621 25.176 12.7703 25.1637C12.4085 25.1497 12.2879 25.0047 12.2285 24.8963C12.0695 24.6097 12.059 24.4559 12.0677 24.3878C12.0904 24.2008 12.1289 24.0033 12.1831 23.8041C12.2669 23.493 12.204 23.1312 11.9926 22.731L11.7759 22.3203C11.6937 22.1648 11.6221 21.969 11.5626 21.7383C11.5172 21.5443 11.5294 21.3119 11.5976 21.0445C11.6588 20.8086 11.7898 20.6233 11.9978 20.4765C12.2058 20.3367 12.4539 20.286 12.7493 20.3245L12.772 20.328H12.7947C13.0848 20.3297 13.3226 20.3577 13.5043 20.4066C13.4536 20.1235 13.4379 19.8281 13.4641 19.5275C13.2736 19.4472 13.0814 19.3912 12.8874 19.365H12.8769L12.7336 19.3528C12.3019 19.3126 11.8807 19.4087 11.4822 19.6394C11.0698 19.8806 10.7919 20.2371 10.6574 20.7002C10.542 21.1039 10.528 21.5199 10.6137 21.9341C10.6242 21.997 10.6381 22.0704 10.6626 22.1403C10.7273 22.3448 10.8339 22.572 10.9807 22.8166C11.2044 23.1854 11.2725 23.306 11.2918 23.3462L11.2987 23.3601C11.3267 23.4108 11.332 23.4877 11.3127 23.5891L11.3057 23.6223C11.2848 23.7359 11.2638 23.8425 11.2551 23.8827C11.0803 24.3353 11.0628 24.753 11.2009 25.1183C11.3407 25.5063 11.5871 25.7894 11.9366 25.9642C12.1394 26.0638 12.3736 26.1267 12.634 26.1529C12.7755 26.1669 12.9241 26.1686 13.0796 26.1599C13.5847 26.1337 13.9954 25.8942 14.2663 25.4731C14.5319 25.0729 14.6176 24.629 14.525 24.1553L14.518 24.1151H14.5127Z" fill="#1B3882"/>
<path d="M36.2145 20.0885C36.0782 19.6306 35.7948 19.2758 35.3718 19.0329H35.3702C34.9912 18.8162 34.5855 18.7271 34.1625 18.7673C34.1468 18.7673 34.1312 18.7708 34.1155 18.7725L33.9755 18.79H33.9635C33.6941 18.8337 33.4251 18.9351 33.1629 19.0871C33.1647 19.1081 33.1682 19.1308 33.1717 19.1518C33.1961 19.4192 33.1839 19.6831 33.1385 19.94L33.2905 19.8788C33.4845 19.8002 33.7485 19.7355 34.0962 19.6831L34.1155 19.6796C34.3812 19.6254 34.6102 19.6743 34.8338 19.8369C35.0695 20.0081 35.2288 20.2213 35.3195 20.4852C35.3948 20.7334 35.4052 20.9466 35.3528 21.1354C35.2882 21.3713 35.2148 21.581 35.1342 21.7575C35.0382 21.9602 34.9402 22.1577 34.8442 22.3377C34.6992 22.6069 34.6468 22.8987 34.6905 23.2028C34.7272 23.4685 34.7655 23.6887 34.8092 23.8774C34.8408 24.0085 34.8215 24.1763 34.7532 24.3755L34.7498 24.3842C34.6938 24.5625 34.3932 24.6586 34.2185 24.7006C33.8201 24.7949 33.6418 24.6499 33.5351 24.5188C33.3535 24.2846 33.2678 24.0312 33.273 23.7464L33.28 23.6642C33.2888 23.5821 33.2975 23.5401 33.301 23.5244L33.2888 23.0141L32.6351 23.0298L32.5652 23.3094C32.5408 23.4056 32.5093 23.4999 32.4691 23.5943L32.4516 23.6345L32.4446 23.6782C32.3677 24.1431 32.4639 24.5852 32.7278 24.9942L32.7347 25.0029C33.0231 25.4189 33.4355 25.6478 33.9268 25.6653C34.0578 25.6723 34.1852 25.6688 34.3058 25.6583C34.5962 25.6321 34.8548 25.5552 35.0765 25.4311C35.4035 25.2511 35.6358 24.9627 35.7722 24.573C35.9015 24.1903 35.8752 23.7743 35.6952 23.3357L35.6515 23.077L35.6482 23.0578C35.6272 22.9652 35.6358 22.8743 35.6708 22.7834C35.7392 22.6209 35.8315 22.4321 35.9452 22.2172C36.0938 21.955 36.1898 21.7331 36.2422 21.5443C36.2685 21.4604 36.2862 21.387 36.2912 21.3136C36.3595 20.9029 36.3332 20.4922 36.2108 20.092L36.2145 20.0885Z" fill="#1B3882"/>
<path d="M28.1323 7.6554C28.183 7.3758 28.2127 7.1119 28.2231 6.848C28.2406 5.8658 27.767 5.01646 26.8128 4.32263C25.8918 3.676 24.7785 3.34396 23.5045 3.33346C22.2269 3.32123 21.1189 3.6463 20.2083 4.29293C19.2559 4.97276 18.7665 5.8099 18.7543 6.78156V6.79033C18.756 6.9843 18.7683 7.1783 18.7927 7.38103C18.7036 7.48763 18.6547 7.60473 18.6494 7.73056V7.74453C18.6494 8.0731 18.6966 8.40166 18.7962 8.71973L18.798 8.72846C18.9343 9.13043 19.1685 9.51316 19.4953 9.8662L19.5897 9.96756L20.4495 10.0637C21.1835 10.4901 22.164 10.719 23.3699 10.74C23.4223 10.74 23.4748 10.74 23.5254 10.74C24.415 10.74 25.1927 10.6317 25.8393 10.4184L25.8568 10.4115C26.0998 10.3171 26.3357 10.2035 26.5611 10.0724C27.2462 10.1371 27.76 9.79976 28.0239 9.11296L28.0886 9.04303L28.0851 8.94516C28.1864 8.6341 28.3647 8.02416 28.1305 7.6554H28.1323ZM20.6365 4.89586C21.416 4.34186 22.3772 4.06573 23.4975 4.07446C24.6177 4.0832 25.5894 4.37156 26.3811 4.92556C27.1344 5.4726 27.4944 6.09826 27.4821 6.82703C27.4769 6.9616 27.4664 7.09966 27.4472 7.24296C26.1749 6.70993 24.8169 6.4443 23.3786 6.4443C22.143 6.4443 20.8497 6.64176 19.5041 7.035C19.4988 6.9511 19.4953 6.86723 19.4936 6.78506C19.5041 6.05456 19.878 5.4359 20.6365 4.89586ZM27.4752 8.3702L27.2252 8.91023C27.2252 8.91023 26.8984 9.3821 26.5419 9.32266L26.4038 9.29996L26.285 9.37336C26.0683 9.50793 25.8376 9.62326 25.5981 9.7159C24.9952 9.91336 24.249 10.0078 23.3821 9.99553C22.309 9.97453 21.4492 9.7823 20.8253 9.42053C20.8061 9.4083 20.7868 9.39606 20.7693 9.38733L20.696 9.3419L19.9514 9.25976C19.8099 9.09373 19.6089 8.7442 19.6089 8.7442L19.4044 8.15173C19.4044 8.15173 19.3939 7.90006 19.3922 7.8424C22.4052 6.89343 25.135 6.97206 27.5066 8.0766C27.5101 8.1203 27.4752 8.3702 27.4752 8.3702ZM27.6971 8.9207V8.91546L27.7023 8.9207H27.6971Z" fill="#1B3882"/>
</svg>
