<svg width="32" height="32" viewBox="0 0 32 32" fill="none" xmlns="http://www.w3.org/2000/svg">
<g id="Group 1312318980">
<g id="Group 1312318978">
<circle id="Ellipse 2949" cx="16" cy="16" r="16" fill="url(#paint0_linear_411_5456)"/>
</g>
<g id="Union">
<path fill-rule="evenodd" clip-rule="evenodd" d="M8.07569 9.29969C7.98382 9.21409 7.97431 9.06947 8.05413 8.97202C8.13396 8.87458 8.27465 8.85906 8.3729 8.93687L10.0529 10.2674C10.2815 10.4485 10.6061 10.4181 10.8148 10.2133C11.4057 9.6338 12.0861 9.14942 12.8339 8.7824C14.3911 8.01815 16.1523 7.80622 17.84 8.18C19.5277 8.55379 21.0461 9.49204 22.156 10.847C22.5506 11.3287 22.4893 12.0469 22.019 12.451C21.5488 12.8552 20.8477 12.7924 20.4531 12.3107C19.6603 11.3429 18.5757 10.6727 17.3702 10.4057C16.1647 10.1387 14.9067 10.2901 13.7944 10.836C13.3959 11.0316 13.0242 11.2739 12.6858 11.5562C12.428 11.7714 12.4558 12.1704 12.7189 12.3788L14.6165 13.8816C14.81 14.0349 15.0761 14.0335 15.2984 13.9289C16.0551 13.5727 16.9769 13.6688 17.6571 14.2535C18.2889 14.7965 18.5517 15.623 18.4168 16.399C18.374 16.6456 18.4397 16.9096 18.6332 17.0627L20.4641 18.5128C20.7272 18.7211 21.1112 18.6482 21.2495 18.3385C21.3431 18.1289 21.4246 17.9129 21.4932 17.6914C21.6788 17.092 22.3036 16.7602 22.8887 16.9503C23.4739 17.1405 23.7978 17.7805 23.6121 18.3799C23.4526 18.8949 23.2435 19.3889 22.9893 19.8552C22.8484 20.1137 22.9014 20.4431 23.1301 20.6242L24.9186 22.0406C25.3984 22.4206 25.4733 23.1333 25.0834 23.6092C24.6936 24.0852 23.9954 24.1334 23.5467 23.7153L21.8744 22.157C21.6606 21.9578 21.3347 21.9615 21.1107 22.1485C20.9506 22.2822 20.7849 22.4096 20.6139 22.5304C19.1926 23.5348 17.4855 24.0263 15.7615 23.9276C14.0374 23.8288 12.3944 23.1455 11.0913 21.985C9.78809 20.8246 8.89878 19.2531 8.56339 17.5181C8.228 15.783 8.4656 13.9829 9.23875 12.4014C9.38446 12.1033 9.54762 11.8162 9.72691 11.5414C9.88751 11.2953 9.86035 10.9626 9.64655 10.7634L8.07569 9.29969ZM12.1394 13.0861C11.8934 12.8569 11.5049 12.8982 11.3429 13.1957C11.3025 13.2697 11.2637 13.3449 11.2265 13.421C10.6742 14.5507 10.5045 15.8364 10.7441 17.0758C10.9836 18.3151 11.6189 19.4376 12.5497 20.2665C13.4805 21.0953 14.6541 21.5835 15.8855 21.654C17.117 21.7245 18.3364 21.3734 19.3516 20.656C19.6247 20.463 19.6281 20.064 19.3827 19.8353L17.6696 18.2391C17.4887 18.0705 17.2235 18.05 16.9939 18.1361C16.2712 18.4069 15.4311 18.2853 14.7993 17.7423C14.119 17.1576 13.8666 16.2444 14.0776 15.4192C14.1396 15.1768 14.0947 14.9081 13.9138 14.7395L12.1394 13.0861Z" fill="white"/>
<path d="M23.477 13.8012C23.9473 14.2054 24.0086 14.9236 23.614 15.4053C23.2194 15.887 22.5184 15.9498 22.0481 15.5456C21.5779 15.1414 21.5165 14.4233 21.9111 13.9416C22.3057 13.4599 23.0068 13.397 23.477 13.8012Z" fill="white"/>
</g>
</g>
<defs>
<linearGradient id="paint0_linear_411_5456" x1="16" y1="0" x2="16" y2="32" gradientUnits="userSpaceOnUse">
<stop stop-color="#6075FF"/>
<stop offset="1" stop-color="#A2C8FF"/>
</linearGradient>
</defs>
</svg>
