<svg width="24" height="24" viewBox="0 0 24 24" fill="none" xmlns="http://www.w3.org/2000/svg">
<g id="ErrorOutlined">
<path id="&#233;&#148;&#153;&#232;&#175;&#175;" d="M19.452 5.89071C19.8418 5.49949 19.8407 4.86632 19.4495 4.4765C19.0583 4.08668 18.4251 4.08781 18.0353 4.47904L11.9849 10.5512L5.91287 4.50092C5.52164 4.11109 4.88848 4.11223 4.49866 4.50345C4.10883 4.89468 4.10997 5.52784 4.50119 5.91766L10.5732 11.9679L4.45374 18.1094C4.06391 18.5006 4.06505 19.1338 4.45627 19.5236C4.8475 19.9134 5.48066 19.9123 5.87048 19.5211L11.99 13.3796L18.1316 19.4992C18.5228 19.889 19.156 19.8879 19.5458 19.4967C19.9356 19.1054 19.9345 18.4723 19.5432 18.0825L13.4016 11.9629L19.452 5.89071Z" fill="black"/>
</g>
</svg>
