<svg width="24" height="25" viewBox="0 0 24 25" fill="none" xmlns="http://www.w3.org/2000/svg">
<path d="M19.454 6.39065C19.8438 5.99943 19.8427 5.36626 19.4514 4.97644C19.0602 4.58662 18.4271 4.58775 18.0372 4.97898L11.9868 11.0511L5.91482 5.00085C5.5236 4.61103 4.89043 4.61217 4.50061 5.00339C4.11079 5.39462 4.11192 6.02778 4.50315 6.4176L10.5752 12.4679L4.45569 18.6093C4.06587 19.0006 4.067 19.6337 4.45823 20.0236C4.84945 20.4134 5.48261 20.4122 5.87244 20.021L11.9919 13.8795L18.1335 19.9991C18.5247 20.389 19.1579 20.3878 19.5477 19.9966C19.9376 19.6054 19.9364 18.9722 19.5452 18.5824L13.4036 12.4628L19.454 6.39065Z" fill="#EBECF0"/>
</svg>
