<svg width="26" height="26" viewBox="0 0 26 26" fill="none" xmlns="http://www.w3.org/2000/svg">
<path fill-rule="evenodd" clip-rule="evenodd" d="M18.2297 17.1263C17.9059 17.3658 17.6958 17.7359 17.6958 18.1386V20.021C17.6958 20.6694 17.1702 21.195 16.5219 21.195H9.47812C8.82977 21.195 8.30417 20.6694 8.30417 20.021V18.1386C8.30417 17.7359 8.09414 17.3658 7.77029 17.1263C5.60155 15.5226 4.19531 12.9467 4.19531 10.0424C4.19531 5.17966 8.1373 1.23767 13 1.23767C17.8627 1.23767 21.8047 5.17966 21.8047 10.0424C21.8047 12.9467 20.3984 15.5226 18.2297 17.1263Z" fill="url(#paint0_linear_2902_3473)"/>
<path d="M10.0651 22.9559C9.41674 22.9559 8.89115 23.4815 8.89115 24.1299C8.89115 24.7782 9.41674 25.3038 10.0651 25.3038H15.9349C16.5833 25.3038 17.1089 24.7782 17.1089 24.1299C17.1089 23.4815 16.5833 22.9559 15.9349 22.9559H10.0651Z" fill="url(#paint1_linear_2902_3473)"/>
<path fill-rule="evenodd" clip-rule="evenodd" d="M15.9204 13.431C15.4666 13.431 15.0986 13.0631 15.0986 12.6093L15.0986 9.92946L13.9187 11.1094C13.4144 11.6137 12.5968 11.6137 12.0925 11.1094L10.9125 9.92946L10.9125 12.6093C10.9125 13.0631 10.5446 13.431 10.0908 13.431C9.6369 13.431 9.26898 13.0631 9.26898 12.6093L9.26898 9.0792C9.26898 7.92873 10.66 7.35257 11.4735 8.16608L13.0056 9.6982L14.5377 8.16608C15.3512 7.35257 16.7422 7.92873 16.7422 9.0792L16.7422 12.6093C16.7422 13.0631 16.3743 13.431 15.9204 13.431Z" fill="white"/>
<defs>
<linearGradient id="paint0_linear_2902_3473" x1="4.41887" y1="9.89565" x2="22.5785" y2="12.6471" gradientUnits="userSpaceOnUse">
<stop stop-color="#6075FF"/>
<stop offset="1" stop-color="#A2C8FF"/>
</linearGradient>
<linearGradient id="paint1_linear_2902_3473" x1="4.41887" y1="9.89565" x2="22.5785" y2="12.6471" gradientUnits="userSpaceOnUse">
<stop stop-color="#6075FF"/>
<stop offset="1" stop-color="#A2C8FF"/>
</linearGradient>
</defs>
</svg>
