<svg width="1280" height="240" viewBox="0 0 1280 240" fill="none" xmlns="http://www.w3.org/2000/svg">
<path d="M423.325 187.68C423.325 187.786 423.271 187.893 423.165 188C423.165 188 423.111 188 423.005 188H402.205C402.098 188 401.991 188 401.885 188C401.885 187.893 401.885 187.786 401.885 187.68V116.32L366.845 187.84C366.845 187.946 366.791 188 366.685 188C366.578 188 366.471 188 366.365 188H351.645C351.538 188 351.431 188 351.325 188C351.218 188 351.165 187.946 351.165 187.84L316.125 116.32V187.68C316.125 187.786 316.071 187.893 315.965 188C315.965 188 315.911 188 315.805 188H295.005C294.898 188 294.791 188 294.685 188C294.685 187.893 294.685 187.786 294.685 187.68V69.7597C294.685 69.6531 294.685 69.5997 294.685 69.5997C294.791 69.4931 294.898 69.4397 295.005 69.4397H314.205C314.525 69.4397 314.685 69.4931 314.685 69.5997L359.005 159.84L403.325 69.5997C403.325 69.4931 403.485 69.4397 403.805 69.4397H423.005C423.111 69.4397 423.165 69.4931 423.165 69.5997C423.271 69.5997 423.325 69.6531 423.325 69.7597V187.68Z" fill="#030620"/>
<path d="M465.901 86.0797C465.901 86.1864 465.847 86.2931 465.741 86.3997C465.741 86.3997 465.687 86.3997 465.581 86.3997H445.741C445.634 86.3997 445.527 86.3997 445.421 86.3997C445.421 86.2931 445.421 86.1864 445.421 86.0797V67.0397C445.421 66.9331 445.421 66.8797 445.421 66.8797C445.527 66.7731 445.634 66.7197 445.741 66.7197H465.581C465.687 66.7197 465.741 66.7731 465.741 66.8797C465.847 66.8797 465.901 66.9331 465.901 67.0397V86.0797ZM465.901 187.68C465.901 187.786 465.847 187.893 465.741 188C465.741 188 465.687 188 465.581 188H445.741C445.634 188 445.527 188 445.421 188C445.421 187.893 445.421 187.786 445.421 187.68V103.52C445.421 103.413 445.421 103.36 445.421 103.36C445.527 103.253 445.634 103.2 445.741 103.2H465.581C465.687 103.2 465.741 103.253 465.741 103.36C465.847 103.36 465.901 103.413 465.901 103.52V187.68Z" fill="#030620"/>
<path d="M506.046 187.68C506.046 187.786 505.992 187.893 505.886 188C505.886 188 505.832 188 505.726 188H485.886C485.779 188 485.672 188 485.566 188C485.566 187.893 485.566 187.786 485.566 187.68V103.52C485.566 103.413 485.566 103.36 485.566 103.36C485.672 103.253 485.779 103.2 485.886 103.2H505.726C505.832 103.2 505.886 103.253 505.886 103.36C505.992 103.36 506.046 103.413 506.046 103.52V187.68ZM485.566 161.76C485.566 151.093 487.539 141.12 491.486 131.84C495.432 122.56 500.872 115.2 507.806 109.76C514.739 104.213 522.472 101.44 531.006 101.44C536.446 101.44 541.512 102.986 546.206 106.08C551.006 109.173 554.846 113.706 557.726 119.68C560.712 125.546 562.206 132.426 562.206 140.32V187.68C562.206 187.786 562.153 187.893 562.046 188C562.046 188 561.993 188 561.886 188H542.046C541.939 188 541.832 188 541.726 188C541.726 187.893 541.726 187.786 541.726 187.68V140.32C541.726 135.946 540.926 132.373 539.326 129.6C537.726 126.72 535.699 124.64 533.246 123.36C530.792 121.973 528.232 121.28 525.566 121.28C521.726 121.28 518.366 122.08 515.486 123.68C512.606 125.28 510.312 128 508.606 131.84C506.899 135.68 506.046 140.853 506.046 147.36L485.566 161.76Z" fill="#030620"/>
<path d="M622.467 171.36C627.48 171.36 631.854 170.293 635.587 168.16C639.32 166.026 642.2 163.04 644.227 159.2C646.254 155.253 647.267 150.72 647.267 145.6C647.267 140.48 646.254 135.946 644.227 132C642.2 128.053 639.32 125.013 635.587 122.88C631.854 120.746 627.48 119.68 622.467 119.68C618.52 119.68 614.84 120.8 611.427 123.04C608.12 125.173 605.507 128.213 603.587 132.16C601.667 136.106 600.707 140.586 600.707 145.6C600.707 150.613 601.667 155.093 603.587 159.04C605.507 162.88 608.12 165.92 611.427 168.16C614.734 170.293 618.414 171.36 622.467 171.36ZM620.867 189.76C612.867 189.76 605.667 187.786 599.267 183.84C592.867 179.893 587.854 174.56 584.227 167.84C580.6 161.013 578.787 153.6 578.787 145.6C578.787 137.6 580.6 130.24 584.227 123.52C587.854 116.693 592.867 111.306 599.267 107.36C605.667 103.413 612.867 101.44 620.867 101.44C628.76 101.44 635.48 103.733 641.027 108.32C646.68 112.8 650.894 118.453 653.667 125.28C656.44 132.106 657.827 138.88 657.827 145.6C657.827 152.32 656.44 159.093 653.667 165.92C650.894 172.746 646.68 178.453 641.027 183.04C635.48 187.52 628.76 189.76 620.867 189.76ZM665.987 187.68C665.987 187.786 665.934 187.893 665.827 188C665.827 188 665.774 188 665.667 188H645.827C645.72 188 645.614 188 645.507 188C645.507 187.893 645.507 187.786 645.507 187.68V160.64L649.987 146.24L645.507 131.04V67.0397C645.507 66.9331 645.507 66.8797 645.507 66.8797C645.614 66.7731 645.72 66.7197 645.827 66.7197H665.667C665.774 66.7197 665.827 66.7731 665.827 66.8797C665.934 66.8797 665.987 66.9331 665.987 67.0397V187.68Z" fill="#030620"/>
<path d="M680.773 154.72C680.773 154.613 680.773 154.56 680.773 154.56C680.88 154.453 680.987 154.4 681.093 154.4L701.733 151.52C701.84 151.52 701.893 151.573 701.893 151.68C702 151.68 702.053 151.733 702.053 151.84C703.013 158.133 706.267 162.986 711.813 166.4C717.36 169.813 723.44 171.093 730.053 170.24C736.667 169.28 741.787 166.133 745.413 160.8C747.333 157.92 748.347 155.04 748.453 152.16C748.56 149.173 747.707 146.506 745.893 144.16C744.187 141.813 741.733 140.053 738.533 138.88C736.08 138.026 731.387 137.12 724.453 136.16C723.067 136.053 719.333 135.52 713.253 134.56C705.467 133.173 699.12 129.333 694.213 123.04C689.307 116.64 686.853 109.386 686.853 101.28C686.853 93.1731 689.627 86.0797 695.173 79.9997C701.253 73.1731 709.093 69.1197 718.693 67.8397C728.4 66.5597 737.627 68.2664 746.373 72.9597C755.227 77.6531 761.627 84.9597 765.573 94.8797C765.68 94.9864 765.68 95.0931 765.573 95.1997C765.573 95.1997 765.52 95.2531 765.413 95.3597L746.213 102.72C746.107 102.826 746 102.88 745.893 102.88C745.893 102.773 745.84 102.666 745.733 102.56C743.493 96.9064 740.24 92.7997 735.973 90.2397C731.813 87.5731 727.44 86.6131 722.853 87.3597C718.373 87.9997 714.48 90.1331 711.173 93.7597C708.827 96.3197 707.653 99.1997 707.653 102.4C707.653 105.493 708.667 108.32 710.693 110.88C712.72 113.333 715.387 114.986 718.693 115.84C719.867 116.16 721.413 116.48 723.333 116.8C725.253 117.013 727.173 117.226 729.093 117.44C736.56 118.08 742.213 119.093 746.053 120.48C754.16 123.466 760.24 127.84 764.293 133.6C768.453 139.36 770.427 145.76 770.213 152.8C770.107 159.733 767.867 166.346 763.493 172.64C756.987 182.133 747.387 187.626 734.693 189.12C722.107 190.72 710.373 188.32 699.493 181.92C688.72 175.52 682.48 166.453 680.773 154.72Z" fill="#030620"/>
<path d="M869.41 150.56C869.41 150.666 869.356 150.773 869.25 150.88C869.25 150.88 869.196 150.88 869.09 150.88H850.69C850.69 143.626 849.676 137.706 847.65 133.12C845.73 128.426 843.01 125.066 839.49 123.04C836.076 120.906 832.023 119.84 827.33 119.84C821.89 119.84 817.303 120.853 813.57 122.88C809.943 124.8 807.17 127.68 805.25 131.52C803.33 135.36 802.37 140 802.37 145.44C802.37 151.093 803.33 155.84 805.25 159.68C807.17 163.52 810.103 166.453 814.05 168.48C817.996 170.4 822.956 171.36 828.93 171.36C832.983 171.36 836.77 170.346 840.29 168.32C843.81 166.186 847.01 163.146 849.89 159.2C849.996 159.093 850.05 159.04 850.05 159.04C850.156 159.04 850.263 159.04 850.37 159.04L866.05 169.76C866.156 169.866 866.21 169.973 866.21 170.08C866.21 170.08 866.21 170.133 866.21 170.24C861.73 176.32 856.13 181.12 849.41 184.64C842.796 188.053 835.97 189.76 828.93 189.76C819.65 189.76 811.543 187.84 804.61 184C797.676 180.16 792.29 174.88 788.45 168.16C784.716 161.44 782.85 153.866 782.85 145.44C782.85 137.013 784.716 129.493 788.45 122.88C792.29 116.16 797.57 110.933 804.29 107.2C811.116 103.36 818.796 101.44 827.33 101.44C835.01 101.44 842.05 103.253 848.45 106.88C854.956 110.506 860.13 116.053 863.97 123.52C867.81 130.88 869.623 139.893 869.41 150.56ZM859.49 150.88H796.13V134.24H859.49V150.88Z" fill="#030620"/>
<path d="M971.467 187.68C971.467 187.786 971.414 187.893 971.307 188C971.307 188 971.254 188 971.147 188H950.827C950.72 188 950.614 188 950.507 188C950.507 187.893 950.507 187.786 950.507 187.68V160.64L954.987 146.24L950.507 131.04V103.52C950.507 103.413 950.507 103.36 950.507 103.36C950.614 103.253 950.72 103.2 950.827 103.2H971.147C971.254 103.2 971.307 103.253 971.307 103.36C971.414 103.36 971.467 103.413 971.467 103.52V187.68ZM927.467 171.36C932.48 171.36 936.854 170.293 940.587 168.16C944.32 166.026 947.2 163.04 949.227 159.2C951.254 155.253 952.267 150.72 952.267 145.6C952.267 140.48 951.254 135.946 949.227 132C947.2 128.053 944.32 125.013 940.587 122.88C936.854 120.746 932.48 119.68 927.467 119.68C923.52 119.68 919.84 120.8 916.427 123.04C913.12 125.173 910.507 128.213 908.587 132.16C906.667 136.106 905.707 140.586 905.707 145.6C905.707 150.613 906.667 155.093 908.587 159.04C910.507 162.88 913.12 165.92 916.427 168.16C919.734 170.293 923.414 171.36 927.467 171.36ZM925.867 189.76C917.867 189.76 910.667 187.786 904.267 183.84C897.867 179.893 892.854 174.56 889.227 167.84C885.6 161.013 883.787 153.6 883.787 145.6C883.787 137.6 885.6 130.24 889.227 123.52C892.854 116.693 897.867 111.306 904.267 107.36C910.667 103.413 917.867 101.44 925.867 101.44C933.76 101.44 940.48 103.733 946.027 108.32C951.68 112.8 955.894 118.453 958.667 125.28C961.44 132.106 962.827 138.88 962.827 145.6C962.827 152.32 961.44 159.093 958.667 165.92C955.894 172.746 951.68 178.453 946.027 183.04C940.48 187.52 933.76 189.76 925.867 189.76Z" fill="#030620"/>
<path d="M1011.2 187.68C1011.2 187.786 1011.15 187.893 1011.04 188C1011.04 188 1010.99 188 1010.88 188H991.042C990.935 188 990.829 188 990.722 188C990.722 187.893 990.722 187.786 990.722 187.68V103.52C990.722 103.413 990.722 103.36 990.722 103.36C990.829 103.253 990.935 103.2 991.042 103.2H1010.88C1010.99 103.2 1011.04 103.253 1011.04 103.36C1011.15 103.36 1011.2 103.413 1011.2 103.52V187.68ZM990.722 161.76C990.722 150.773 992.642 140.693 996.482 131.52C1000.32 122.346 1005.76 115.04 1012.8 109.6C1019.84 104.16 1027.95 101.44 1037.12 101.44C1037.23 101.44 1037.28 101.493 1037.28 101.6C1037.39 101.6 1037.44 101.653 1037.44 101.76V120.96C1037.44 121.066 1037.39 121.173 1037.28 121.28C1037.28 121.28 1037.23 121.28 1037.12 121.28C1031.04 121.28 1026.08 122.133 1022.24 123.84C1018.51 125.44 1015.74 128.16 1013.92 132C1012.11 135.733 1011.2 140.853 1011.2 147.36L990.722 161.76Z" fill="#030620"/>
<path d="M1110.63 158.08C1110.74 157.973 1110.79 157.92 1110.79 157.92C1110.9 157.813 1111 157.813 1111.11 157.92L1127.11 168.96C1127.22 169.066 1127.27 169.173 1127.27 169.28C1127.27 169.28 1127.27 169.333 1127.27 169.44C1123.11 175.413 1117.72 180.32 1111.11 184.16C1104.6 187.893 1097.46 189.76 1089.67 189.76C1081.67 189.76 1074.26 187.786 1067.43 183.84C1060.71 179.893 1055.32 174.56 1051.27 167.84C1047.32 161.013 1045.35 153.6 1045.35 145.6C1045.35 137.6 1047.32 130.24 1051.27 123.52C1055.32 116.693 1060.71 111.306 1067.43 107.36C1074.26 103.413 1081.67 101.44 1089.67 101.44C1097.56 101.44 1104.82 103.306 1111.43 107.04C1118.04 110.773 1123.32 115.84 1127.27 122.24C1127.38 122.346 1127.38 122.453 1127.27 122.56C1127.27 122.666 1127.22 122.72 1127.11 122.72L1110.31 132.8C1110.2 132.8 1110.1 132.8 1109.99 132.8C1109.88 132.693 1109.83 132.64 1109.83 132.64C1107.38 128.693 1104.55 125.813 1101.35 124C1098.15 122.186 1094.26 121.28 1089.67 121.28C1084.87 121.28 1080.66 122.293 1077.03 124.32C1073.51 126.24 1070.74 129.066 1068.71 132.8C1066.79 136.426 1065.83 140.693 1065.83 145.6C1065.83 150.506 1066.79 154.826 1068.71 158.56C1070.74 162.186 1073.51 165.013 1077.03 167.04C1080.66 168.96 1084.87 169.92 1089.67 169.92C1094.04 169.92 1097.88 168.96 1101.19 167.04C1104.5 165.12 1107.64 162.133 1110.63 158.08Z" fill="#030620"/>
<path d="M1140.25 161.76C1140.25 151.093 1142.23 141.12 1146.17 131.84C1150.12 122.56 1155.56 115.2 1162.49 109.76C1169.43 104.213 1177.16 101.44 1185.69 101.44C1191.13 101.44 1196.2 102.986 1200.89 106.08C1205.69 109.173 1209.53 113.706 1212.41 119.68C1215.4 125.546 1216.89 132.426 1216.89 140.32V187.68C1216.89 187.786 1216.84 187.893 1216.73 188C1216.73 188 1216.68 188 1216.57 188H1196.73C1196.63 188 1196.52 188 1196.41 188C1196.41 187.893 1196.41 187.786 1196.41 187.68V140.32C1196.41 135.946 1195.61 132.373 1194.01 129.6C1192.41 126.72 1190.39 124.64 1187.93 123.36C1185.48 121.973 1182.92 121.28 1180.25 121.28C1176.41 121.28 1173.05 122.08 1170.17 123.68C1167.29 125.28 1165 128 1163.29 131.84C1161.59 135.68 1160.73 140.853 1160.73 147.36L1140.25 161.76ZM1160.73 187.68C1160.73 187.786 1160.68 187.893 1160.57 188C1160.57 188 1160.52 188 1160.41 188H1140.57C1140.47 188 1140.36 188 1140.25 188C1140.25 187.893 1140.25 187.786 1140.25 187.68V67.0397C1140.25 66.9331 1140.25 66.8797 1140.25 66.8797C1140.36 66.7731 1140.47 66.7197 1140.57 66.7197H1160.41C1160.52 66.7197 1160.57 66.7731 1160.57 66.8797C1160.68 66.8797 1160.73 66.9331 1160.73 67.0397V187.68Z" fill="#030620"/>
<path fill-rule="evenodd" clip-rule="evenodd" d="M64.8141 49.6468C63.826 48.748 63.7237 47.2295 64.5822 46.2063C65.4408 45.1831 66.954 45.0201 68.0107 45.8371L86.08 59.8074C88.5393 61.7088 92.03 61.3899 94.2753 59.2401C100.631 53.1549 107.948 48.0689 115.992 44.2152C132.741 36.1905 151.683 33.9653 169.836 37.89C187.988 41.8147 204.319 51.6664 216.257 65.8934C220.501 70.9512 219.842 78.4919 214.784 82.736C209.726 86.98 202.185 86.3203 197.941 81.2624C189.414 71.1003 177.749 64.0634 164.783 61.26C151.817 58.4567 138.286 60.0461 126.323 65.778C122.036 67.8318 118.038 70.3756 114.399 73.3402C111.626 75.5993 111.924 79.789 114.754 81.977L135.165 97.7572C137.246 99.3666 140.108 99.3518 142.499 98.2533C150.638 94.5137 160.552 95.5222 167.869 101.662C174.664 107.364 177.49 116.041 176.04 124.19C175.579 126.779 176.286 129.55 178.367 131.159L198.059 146.384C200.889 148.572 205.019 147.806 206.507 144.554C207.514 142.353 208.39 140.085 209.128 137.759C211.124 131.466 217.845 127.982 224.138 129.979C230.432 131.975 233.915 138.695 231.919 144.989C230.203 150.397 227.953 155.583 225.219 160.479C223.704 163.194 224.274 166.652 226.734 168.554L245.97 183.426C251.131 187.417 251.937 194.899 247.743 199.897C243.55 204.894 236.041 205.4 231.215 201.01L213.228 184.649C210.929 182.557 207.424 182.596 205.014 184.56C203.292 185.963 201.51 187.301 199.671 188.569C184.384 199.115 166.022 204.276 147.479 203.24C128.936 202.203 111.265 195.027 97.2486 182.843C83.2321 170.659 73.667 154.158 70.0597 135.94C66.4523 117.721 69.0078 98.8206 77.3236 82.2143C78.8907 79.0848 80.6457 76.0703 82.574 73.1849C84.3014 70.6004 84.0092 67.1073 81.7097 65.0155L64.8141 49.6468ZM108.522 89.4046C105.876 86.9976 101.698 87.4308 99.9546 90.5544C99.5205 91.3322 99.1031 92.121 98.7028 92.9203C92.763 104.782 90.9376 118.282 93.5143 131.295C96.0909 144.308 102.923 156.095 112.935 164.798C122.947 173.501 135.569 178.626 148.814 179.367C162.059 180.107 175.174 176.421 186.094 168.888C189.031 166.862 189.068 162.672 186.428 160.271L168.003 143.51C166.057 141.741 163.205 141.525 160.735 142.429C152.962 145.272 143.926 143.996 137.131 138.294C129.814 132.154 127.099 122.566 129.369 113.902C130.035 111.356 129.553 108.535 127.607 106.765L108.522 89.4046Z" fill="url(#paint0_linear_151_232)"/>
<path d="M230.465 96.9129C235.523 101.157 236.183 108.698 231.939 113.755C227.695 118.813 220.154 119.473 215.096 115.229C210.039 110.985 209.379 103.444 213.623 98.3864C217.867 93.3285 225.408 92.6688 230.465 96.9129Z" fill="url(#paint1_linear_151_232)"/>
<defs>
<linearGradient id="paint0_linear_151_232" x1="189" y1="204" x2="111.374" y2="36.29" gradientUnits="userSpaceOnUse">
<stop stop-color="#3E97FE"/>
<stop offset="1" stop-color="#4255FF"/>
</linearGradient>
<linearGradient id="paint1_linear_151_232" x1="189" y1="204" x2="111.374" y2="36.29" gradientUnits="userSpaceOnUse">
<stop stop-color="#3E97FE"/>
<stop offset="1" stop-color="#4255FF"/>
</linearGradient>
</defs>
</svg>
