<svg width="24" height="24" viewBox="0 0 24 24" fill="none" xmlns="http://www.w3.org/2000/svg">
<path d="M6.17574 7.02426C5.94142 6.78995 5.94142 6.41005 6.17574 6.17574C6.41005 5.94142 6.78995 5.94142 7.02427 6.17574L12.4242 11.5757C12.6585 11.81 12.6585 12.1899 12.4242 12.4242L7.02426 17.8241C6.78995 18.0584 6.41005 18.0584 6.17574 17.8241C5.94142 17.5898 5.94142 17.2099 6.17574 16.9756L11.1514 11.9999L6.17574 7.02426Z" fill="#121316" fill-opacity="0.6"/>
<path d="M11.5757 7.02426C11.3413 6.78995 11.3413 6.41005 11.5757 6.17574C11.81 5.94142 12.1899 5.94142 12.4242 6.17574L17.8241 11.5757C18.0584 11.81 18.0584 12.1899 17.8241 12.4242L12.4242 17.8241C12.1899 18.0584 11.81 18.0584 11.5757 17.8241C11.3413 17.5898 11.3413 17.2099 11.5757 16.9756L16.5513 11.9999L11.5757 7.02426Z" fill="#121316" fill-opacity="0.6"/>
</svg>
