<svg width="16" height="16" viewBox="0 0 16 16" fill="none" xmlns="http://www.w3.org/2000/svg">
<path d="M2.66667 2C2.29848 2 2 2.29848 2 2.66667V6C2 6.36819 2.29848 6.66667 2.66667 6.66667C3.03486 6.66667 3.33333 6.36819 3.33333 6V3.33333H6C6.36819 3.33333 6.66667 3.03486 6.66667 2.66667C6.66667 2.29848 6.36819 2 6 2H2.66667ZM14 13.3333V10C14 9.63181 13.7015 9.33333 13.3333 9.33333C12.9651 9.33333 12.6667 9.63181 12.6667 10V12.6667H10C9.63181 12.6667 9.33333 12.9651 9.33333 13.3333C9.33333 13.7015 9.63181 14 10 14H13.3333C13.7015 14 14 13.7015 14 13.3333ZM11.7239 3.33333H10C9.63181 3.33333 9.33333 3.03486 9.33333 2.66667C9.33333 2.29848 9.63181 2 10 2H13.3333C13.5101 2 13.6797 2.07024 13.8047 2.19526C13.9298 2.32029 14 2.48986 14 2.66667V6C14 6.36819 13.7015 6.66667 13.3333 6.66667C12.9651 6.66667 12.6667 6.36819 12.6667 6V4.27614L10.4714 6.4714C10.2111 6.73175 9.78895 6.73175 9.5286 6.4714C9.26825 6.21106 9.26825 5.78894 9.5286 5.5286L11.7239 3.33333ZM3.33333 10C3.33333 9.63181 3.03486 9.33333 2.66667 9.33333C2.29848 9.33333 2 9.63181 2 10V13.3333C2 13.5101 2.07024 13.6797 2.19526 13.8047C2.32029 13.9298 2.48986 14 2.66667 14H6C6.36819 14 6.66667 13.7015 6.66667 13.3333C6.66667 12.9651 6.36819 12.6667 6 12.6667H4.27614L6.4714 10.4714C6.73175 10.2111 6.73175 9.78895 6.4714 9.5286C6.21106 9.26825 5.78894 9.26825 5.5286 9.5286L3.33333 11.7239V10Z" fill="#464A53"/>
</svg>
